<?xml version="1.0" standalone="no"?>
<!DOCTYPE svg PUBLIC "-//W3C//DTD SVG 20010904//EN"
 "http://www.w3.org/TR/2001/REC-SVG-20010904/DTD/svg10.dtd">
<svg version="1.0" xmlns="http://www.w3.org/2000/svg"
 width="261.000000pt" height="261.000000pt" viewBox="0 0 261.000000 261.000000"
 preserveAspectRatio="xMidYMid meet">
<metadata>
Created by potrace 1.14, written by Peter Selinger 2001-2017
</metadata>
<g transform="translate(0.000000,261.000000) scale(0.100000,-0.100000)"
fill="#000000" stroke="none">
<path d="M1120 2599 c-282 -45 -528 -168 -726 -364 -128 -127 -201 -228 -271
-377 -36 -76 -91 -244 -99 -303 -3 -22 -10 -59 -14 -83 -10 -58 -10 -262 1
-342 20 -142 62 -275 131 -415 40 -80 135 -225 147 -225 8 0 191 183 191 192
0 3 -16 29 -35 57 -145 216 -201 505 -149 776 13 71 70 221 110 291 122 214
276 349 526 458 91 40 291 76 374 67 8 -1 11 -43 12 -136 l0 -135 -40 0 c-21
0 -74 -7 -116 -16 -444 -91 -706 -531 -575 -964 79 -260 288 -448 578 -517 46
-11 227 -10 282 2 345 73 589 352 612 700 1 7 50 11 137 11 l136 1 -5 -76
c-21 -290 -199 -585 -456 -755 -197 -129 -403 -180 -676 -165 -123 7 -329 81
-453 164 -30 19 -57 35 -61 35 -8 0 -191 -183 -191 -192 0 -11 159 -113 236
-151 190 -95 352 -132 579 -131 154 0 211 6 322 35 238 62 424 169 598 344
203 202 333 459 372 735 14 100 8 338 -11 430 -24 115 -68 244 -116 342 -40
80 -137 228 -149 228 -3 0 -148 -142 -322 -316 l-315 -315 18 -54 c102 -303
-174 -609 -485 -538 -273 62 -409 353 -281 605 48 94 155 179 264 208 66 18
167 15 232 -7 l57 -19 315 315 c174 174 316 319 316 322 0 3 -21 21 -47 40
-143 103 -340 188 -519 225 -90 18 -349 26 -434 13z"/>
</g>
</svg>
