<svg width="329" height="329" viewBox="0 0 329 329" fill="none" xmlns="http://www.w3.org/2000/svg">
<path fill-rule="evenodd" clip-rule="evenodd" d="M179.642 211.567H274.258C276.194 211.565 277.762 209.994 277.762 208.058V177.052C277.758 175.119 276.192 173.552 274.258 173.549H179.642C177.706 173.549 176.136 175.117 176.133 177.052V208.058C176.136 209.995 177.705 211.565 179.642 211.567ZM177.775 177.052C177.778 176.024 178.613 175.191 179.642 175.191H274.258C275.286 175.191 276.119 176.024 276.119 177.052V208.058C276.119 209.087 275.287 209.922 274.258 209.925H179.642C179.147 209.925 178.672 209.728 178.322 209.378C177.972 209.028 177.775 208.553 177.775 208.058V177.052Z" fill="#D8D3DA" fill-opacity="0.2"/>
<path d="M275.823 209.93C275.764 209.93 275.705 209.921 275.648 209.903L177.282 176.007C177.091 175.949 176.946 175.791 176.906 175.594C176.865 175.398 176.935 175.195 177.087 175.066C177.24 174.936 177.451 174.9 177.638 174.972L276.004 208.868C276.29 208.967 276.442 209.278 276.344 209.564C276.266 209.784 276.058 209.932 275.823 209.93Z" fill="#D8D3DA" fill-opacity="0.2"/>
<path d="M177.77 209.931C177.505 209.928 177.28 209.736 177.236 209.475C177.191 209.214 177.34 208.959 177.589 208.869L254.677 182.302C254.959 182.217 255.258 182.37 255.353 182.648C255.449 182.926 255.307 183.231 255.033 183.337L177.945 209.903C177.888 209.92 177.829 209.929 177.77 209.931Z" fill="#D8D3DA" fill-opacity="0.2"/>
<path d="M259.253 181.853C258.982 181.858 258.748 181.664 258.703 181.397C258.658 181.13 258.815 180.87 259.072 180.786L275.955 174.972C276.142 174.9 276.353 174.936 276.506 175.066C276.659 175.195 276.728 175.398 276.688 175.594C276.647 175.791 276.502 175.949 276.311 176.007L259.434 181.82C259.376 181.841 259.314 181.853 259.253 181.853Z" fill="#D8D3DA" fill-opacity="0.2"/>
<path fill-rule="evenodd" clip-rule="evenodd" d="M54.4085 155.944H274.171C276.148 155.941 277.753 154.341 277.762 152.364V121.402C277.762 119.418 276.154 117.81 274.171 117.81H54.4085C52.4252 117.81 50.8174 119.418 50.8174 121.402V152.347C50.8174 154.332 52.4243 155.941 54.4085 155.944ZM52.4596 121.402C52.4627 120.326 53.3334 119.456 54.4085 119.453L274.171 119.469C275.247 119.469 276.119 120.342 276.119 121.418V152.364C276.121 152.882 275.916 153.379 275.551 153.745C275.185 154.112 274.688 154.318 274.171 154.318H54.4085C53.3312 154.315 52.4596 153.441 52.4596 152.364V121.402Z" fill="#D8D3DA" fill-opacity="0.2"/>
<path fill-rule="evenodd" clip-rule="evenodd" d="M225.472 142.138C225.842 142.568 226.382 142.816 226.95 142.817C227.517 142.814 228.056 142.567 228.428 142.138L236.442 132.832C236.773 132.451 236.85 131.912 236.64 131.453C236.43 130.995 235.972 130.701 235.468 130.702H218.432C217.928 130.701 217.469 130.995 217.259 131.453C217.05 131.912 217.127 132.451 217.457 132.832L225.472 142.138ZM226.714 141.081L219.198 132.323H234.696L227.185 141.081C227.127 141.151 227.041 141.191 226.95 141.191C226.859 141.191 226.772 141.151 226.714 141.081Z" fill="#D8D3DA" fill-opacity="0.2"/>
<path d="M108.017 140.906C107.857 140.906 107.705 140.836 107.601 140.715L97.4737 128.803C97.3467 128.654 97.3084 128.449 97.3735 128.265C97.4387 128.08 97.5974 127.944 97.7896 127.909C97.9823 127.873 98.1788 127.943 98.3058 128.091L108.433 140.008C108.569 140.171 108.598 140.397 108.509 140.589C108.42 140.781 108.229 140.905 108.017 140.906Z" fill="#D8D3DA" fill-opacity="0.2"/>
<path d="M107.382 132.345C107.22 132.346 107.066 132.276 106.961 132.153L104.464 129.219C104.268 128.987 104.296 128.641 104.527 128.444C104.758 128.248 105.105 128.276 105.302 128.507L107.798 131.447C107.892 131.558 107.937 131.701 107.925 131.846C107.913 131.991 107.844 132.125 107.732 132.219C107.634 132.3 107.51 132.345 107.382 132.345Z" fill="#D8D3DA" fill-opacity="0.2"/>
<path d="M101.229 140.736C101.069 140.736 100.917 140.666 100.813 140.545L95.4044 134.178C95.3102 134.068 95.2632 133.925 95.2747 133.78C95.2861 133.635 95.3546 133.501 95.4646 133.406C95.5757 133.313 95.7197 133.267 95.8642 133.279C96.0087 133.291 96.1429 133.361 96.2365 133.472L101.645 139.839C101.78 140.001 101.81 140.227 101.721 140.419C101.632 140.611 101.441 140.735 101.229 140.736Z" fill="#D8D3DA" fill-opacity="0.2"/>
</svg>
