<svg width="198" height="146" viewBox="0 0 198 146" fill="none" xmlns="http://www.w3.org/2000/svg">
<path fill-rule="evenodd" clip-rule="evenodd" d="M5.97196 141.411H192.576C192.805 141.411 193.024 141.32 193.187 141.159C193.348 140.996 193.439 140.777 193.439 140.548V5.25663C193.439 4.77994 193.053 4.39307 192.576 4.39307H5.97196C5.49527 4.39307 5.1084 4.77994 5.1084 5.25663V140.548C5.1084 141.025 5.49527 141.411 5.97196 141.411ZM191.712 139.684H6.83552V6.12019H191.712V139.684Z" fill="#D8D3DA" fill-opacity="0.17"/>
<path fill-rule="evenodd" clip-rule="evenodd" d="M1.54471 145.827H10.3991C10.8764 145.827 11.2627 145.441 11.2627 144.964V136.109C11.2627 135.632 10.8764 135.246 10.3991 135.246H1.54471C1.06803 135.246 0.681152 135.632 0.681152 136.109V144.964C0.681152 145.441 1.06803 145.827 1.54471 145.827ZM9.53553 144.1H2.40827V136.973H9.53553V144.1Z" fill="#D8D3DA" fill-opacity="0.17"/>
<path fill-rule="evenodd" clip-rule="evenodd" d="M1.54471 10.9389H10.3991C10.8746 10.936 11.2598 10.5509 11.2627 10.0754V1.22098C11.2627 0.744297 10.8764 0.357422 10.3991 0.357422H1.54471C1.06803 0.357422 0.681152 0.744297 0.681152 1.22098V10.0754C0.681152 10.5526 1.06803 10.9389 1.54471 10.9389ZM9.53553 9.21179H2.40827V2.0903H9.53553V9.21179Z" fill="#D8D3DA" fill-opacity="0.17"/>
<path fill-rule="evenodd" clip-rule="evenodd" d="M1.54471 68.0835H10.3991C10.8746 68.0806 11.2598 67.6954 11.2627 67.2199V58.3655C11.2627 57.8888 10.8764 57.502 10.3991 57.502H1.54471C1.06803 57.502 0.681152 57.8888 0.681152 58.3655V67.2199C0.681152 67.6972 1.06803 68.0835 1.54471 68.0835ZM9.53553 66.3563H2.40827V59.2291H9.53553V66.3563Z" fill="#D8D3DA" fill-opacity="0.17"/>
<path fill-rule="evenodd" clip-rule="evenodd" d="M94.9534 11.0029H103.808C104.28 11.0029 104.665 10.6229 104.671 10.1508V1.28495C104.671 0.807686 104.285 0.421387 103.808 0.421387H94.9534C94.4767 0.421387 94.0898 0.807686 94.0898 1.28495V10.1393C94.0898 10.616 94.4767 11.0029 94.9534 11.0029ZM102.944 9.27577H95.817V2.14851H102.944V9.27577Z" fill="#D8D3DA" fill-opacity="0.17"/>
<path fill-rule="evenodd" clip-rule="evenodd" d="M94.9534 145.827H103.808C104.285 145.827 104.671 145.441 104.671 144.964V136.109C104.671 135.632 104.285 135.246 103.808 135.246H94.9534C94.4767 135.246 94.0898 135.632 94.0898 136.109V144.964C94.0898 145.441 94.4767 145.827 94.9534 145.827ZM102.944 144.1H95.817V136.973H102.944V144.1Z" fill="#D8D3DA" fill-opacity="0.17"/>
<path fill-rule="evenodd" clip-rule="evenodd" d="M188.149 145.827H197.003C197.48 145.827 197.867 145.441 197.867 144.964V136.109C197.867 135.632 197.48 135.246 197.003 135.246H188.149C187.672 135.246 187.285 135.632 187.285 136.109V144.964C187.285 145.441 187.672 145.827 188.149 145.827ZM196.14 144.1H189.012V136.973H196.14V144.1Z" fill="#D8D3DA" fill-opacity="0.17"/>
<path fill-rule="evenodd" clip-rule="evenodd" d="M188.149 10.9332H197.003C197.48 10.9332 197.867 10.5469 197.867 10.0696V1.22098C197.867 0.744297 197.48 0.357422 197.003 0.357422H188.149C187.672 0.357422 187.285 0.744297 187.285 1.22098V10.0696C187.285 10.5469 187.672 10.9332 188.149 10.9332ZM196.14 9.20604H189.012V2.0903H196.14V9.20604Z" fill="#D8D3DA" fill-opacity="0.17"/>
<path fill-rule="evenodd" clip-rule="evenodd" d="M188.149 68.0781H197.003C197.48 68.0781 197.867 67.6918 197.867 67.2145V58.3601C197.867 57.8835 197.48 57.4966 197.003 57.4966H188.149C187.672 57.4966 187.285 57.8835 187.285 58.3601V67.2145C187.285 67.6918 187.672 68.0781 188.149 68.0781ZM196.14 66.351H189.012V59.2237H196.14V66.351Z" fill="#D8D3DA" fill-opacity="0.17"/>
<path fill-rule="evenodd" clip-rule="evenodd" d="M33.2203 59.2294H165.328C166.829 59.2259 168.045 58.0078 168.045 56.5063V23.858C168.042 22.3582 166.828 21.1435 165.328 21.1406H33.2203C31.7194 21.1406 30.5029 22.3571 30.5029 23.858V56.5063C30.5012 57.2277 30.7868 57.9208 31.2968 58.4315C31.8063 58.9421 32.4983 59.2294 33.2203 59.2294ZM32.2301 23.858C32.2301 23.311 32.6734 22.8677 33.2203 22.8677H165.328C165.875 22.8677 166.318 23.311 166.318 23.858V56.5063C166.318 57.0538 165.876 57.4988 165.328 57.5023H33.2203C32.6722 57.4988 32.2301 57.0538 32.2301 56.5063V23.858Z" fill="#D8D3DA" fill-opacity="0.17"/>
<path d="M166.249 58.1704C166.201 58.1762 166.153 58.1762 166.105 58.1704L31.5735 23.3459C31.3605 23.3079 31.1861 23.1542 31.1228 22.9469C31.0594 22.7397 31.1181 22.5146 31.2742 22.3643C31.4296 22.2141 31.657 22.164 31.8614 22.2348L166.393 57.0593C166.711 57.099 166.936 57.3886 166.896 57.707C166.857 58.0248 166.567 58.2504 166.249 58.2107V58.1704Z" fill="#D8D3DA" fill-opacity="0.17"/>
<path d="M139.778 29.9205C139.507 29.9279 139.267 29.746 139.202 29.4829C139.126 29.1743 139.315 28.8629 139.623 28.7863L166.105 22.2175C166.412 22.1409 166.723 22.3257 166.802 22.632C166.84 22.7805 166.817 22.9388 166.738 23.0707C166.66 23.2025 166.531 23.2975 166.382 23.3344L139.899 29.9032L139.778 29.9205Z" fill="#D8D3DA" fill-opacity="0.17"/>
<path d="M31.7352 58.1707C31.4174 58.2104 31.1273 57.9847 31.0875 57.6669C31.0478 57.3486 31.2735 57.059 31.5913 57.0193L134.764 30.0704C135.062 30.0105 135.356 30.1936 135.433 30.4878C135.511 30.782 135.346 31.086 135.057 31.1815L31.8791 58.1304C31.8331 58.1494 31.7847 58.1632 31.7352 58.1707Z" fill="#D8D3DA" fill-opacity="0.17"/>
<path fill-rule="evenodd" clip-rule="evenodd" d="M32.8864 87.5431H165.633C166.954 87.5305 168.019 86.4573 168.022 85.1367V74.44C168.019 73.109 166.941 72.0307 165.61 72.0278H32.8864C31.5565 72.0307 30.48 73.1096 30.48 74.44V85.1367C30.48 86.4654 31.5571 87.5431 32.8864 87.5431ZM32.2301 74.4113C32.2301 74.0347 32.5335 73.729 32.9095 73.7262H165.633C166.011 73.7262 166.318 74.0324 166.318 74.4113V85.1079C166.318 85.2887 166.246 85.4625 166.117 85.5898C165.988 85.7176 165.814 85.7884 165.633 85.7872H32.9095C32.5341 85.7872 32.2301 85.4827 32.2301 85.1079V74.4113Z" fill="#D8D3DA" fill-opacity="0.17"/>
<path fill-rule="evenodd" clip-rule="evenodd" d="M32.8864 112.506H165.633C166.961 112.493 168.029 111.41 168.022 110.082V99.3854C168.019 98.0543 166.941 96.976 165.61 96.9731H32.8864C31.5565 96.976 30.48 98.0549 30.48 99.3854V110.099C30.48 111.428 31.5571 112.506 32.8864 112.506ZM32.2301 99.3739C32.2301 98.9973 32.5335 98.6916 32.9095 98.6888L165.633 98.7003C166.011 98.7003 166.318 99.0065 166.318 99.3854V110.07C166.318 110.251 166.246 110.425 166.117 110.553C165.988 110.68 165.814 110.751 165.633 110.75H32.9095C32.5341 110.75 32.2301 110.445 32.2301 110.07V99.3739Z" fill="#D8D3DA" fill-opacity="0.17"/>
</svg>
