<svg width="198" height="154" viewBox="0 0 198 154" fill="none" xmlns="http://www.w3.org/2000/svg">
<path d="M135.936 62.2546H85.2312C84.5936 62.2546 84.0762 61.7375 84.0762 61.0996V30.0378C84.0762 29.3999 84.5936 28.8828 85.2312 28.8828H135.951C136.589 28.8828 137.106 29.3999 137.106 30.0378V40.2018C137.106 40.8397 136.589 41.3568 135.951 41.3568C135.314 41.3568 134.796 40.8397 134.796 40.2018V31.1928H86.3708V59.9446H134.781V47.8556C134.781 47.2177 135.298 46.7006 135.936 46.7006C136.573 46.7006 137.091 47.2177 137.091 47.8556V61.0996C137.091 61.7375 136.573 62.2546 135.936 62.2546Z" fill="#D8D3DA"/>
<path d="M146.747 31.1928H59.8215C59.1836 31.1928 58.6665 30.6757 58.6665 30.0378C58.6665 29.3999 59.1836 28.8828 59.8215 28.8828H146.747C147.384 28.8828 147.902 29.3999 147.902 30.0378C147.902 30.6757 147.384 31.1928 146.747 31.1928Z" fill="#D8D3DA"/>
<path fill-rule="evenodd" clip-rule="evenodd" d="M110.572 93.3164H161.292C161.601 93.3164 161.897 93.1924 162.114 92.973C162.331 92.7528 162.451 92.4548 162.447 92.146V61.0842C162.447 60.4463 161.929 59.9292 161.292 59.9292H110.572C109.934 59.9292 109.417 60.4463 109.417 61.0842V92.1614C109.417 92.799 109.934 93.3164 110.572 93.3164ZM160.137 91.0064H111.727V62.2546H160.137V91.0064Z" fill="#D8D3DA"/>
<path fill-rule="evenodd" clip-rule="evenodd" d="M59.8215 93.3164H110.572C111.204 93.2995 111.705 92.7782 111.696 92.146V61.0842C111.696 60.4463 111.179 59.9292 110.541 59.9292H59.8215C59.1836 59.9292 58.6665 60.4463 58.6665 61.0842V92.1614C58.6665 92.799 59.1836 93.3164 59.8215 93.3164ZM109.417 91.0064H61.0073V62.2546H109.417V91.0064Z" fill="#D8D3DA"/>
<path d="M173.874 62.2546H1.155C0.517111 62.2546 0 61.7374 0 61.0996C0 60.4617 0.517111 59.9446 1.155 59.9446H173.874C174.511 59.9446 175.029 60.4617 175.029 61.0996C175.029 61.7374 174.511 62.2546 173.874 62.2546Z" fill="#D8D3DA"/>
<path d="M195.765 93.3163H35.6047C34.9668 93.3163 34.4497 92.7989 34.4497 92.1613C34.4497 91.5238 34.9668 91.0063 35.6047 91.0063H195.765C196.402 91.0063 196.92 91.5238 196.92 92.1613C196.92 92.7989 196.402 93.3163 195.765 93.3163Z" fill="#D8D3DA"/>
<path fill-rule="evenodd" clip-rule="evenodd" d="M85.2312 124.378H135.936C136.244 124.382 136.542 124.263 136.763 124.046C136.982 123.828 137.106 123.532 137.106 123.223V92.1613C137.106 91.5238 136.589 91.0063 135.951 91.0063H85.2312C84.5936 91.0063 84.0762 91.5238 84.0762 92.1613V123.223C84.0762 123.861 84.5936 124.378 85.2312 124.378ZM134.781 122.068H86.3708V93.3163H134.781V122.068Z" fill="#D8D3DA"/>
<path d="M142.288 124.378H63.1247C62.4869 124.378 61.9697 123.861 61.9697 123.223C61.9697 122.586 62.4869 122.068 63.1247 122.068H142.288C142.926 122.068 143.443 122.586 143.443 123.223C143.443 123.861 142.926 124.378 142.288 124.378Z" fill="#D8D3DA"/>
</svg>
