<svg width="349" height="505" viewBox="0 0 349 505" fill="none" xmlns="http://www.w3.org/2000/svg">
<g opacity="0.3">
<path fill-rule="evenodd" clip-rule="evenodd" d="M12.9239 125.932H115.295C115.94 125.932 116.463 125.41 116.463 124.765V12.2177C116.463 11.573 115.94 11.0505 115.295 11.0505H15.5024C13.4348 11.0548 11.7597 12.728 11.7554 14.7933V124.765C11.7554 125.41 12.2785 125.932 12.9239 125.932ZM114.118 123.598H14.0924L14.0846 14.7933C14.0846 14.0154 14.7159 13.3849 15.4947 13.3849H114.118V123.598Z" fill="#D8D3DA"/>
<path fill-rule="evenodd" clip-rule="evenodd" d="M234.266 492.022H334.051C335.045 492.023 335.998 491.631 336.702 490.931C337.407 490.231 337.803 489.279 337.805 488.287V379.412C337.805 378.767 337.282 378.245 336.637 378.245H234.266C233.621 378.245 233.098 378.767 233.098 379.412V490.855C233.098 491.499 233.621 492.022 234.266 492.022ZM334.051 489.687H235.435V380.579H335.468V488.287C335.46 489.063 334.827 489.687 334.051 489.687Z" fill="#D8D3DA"/>
<path fill-rule="evenodd" clip-rule="evenodd" d="M127.151 492.022H222.402C223.047 492.022 223.57 491.499 223.57 490.855V379.412C223.57 378.767 223.047 378.245 222.402 378.245H127.151C126.506 378.245 125.983 378.767 125.983 379.412V490.855C125.983 491.499 126.506 492.022 127.151 492.022ZM221.233 489.687H128.312L128.32 380.579H221.233V489.687Z" fill="#D8D3DA"/>
<path fill-rule="evenodd" clip-rule="evenodd" d="M15.5024 492.022H115.295C115.94 492.022 116.463 491.499 116.463 490.855V379.412C116.463 378.767 115.94 378.245 115.295 378.245H12.9239C12.2785 378.245 11.7554 378.767 11.7554 379.412V488.287C11.7597 490.35 13.436 492.022 15.5024 492.022ZM14.0924 488.287V380.579H114.118V489.687H15.5024C14.7267 489.687 14.0967 489.061 14.0924 488.287Z" fill="#D8D3DA"/>
<path fill-rule="evenodd" clip-rule="evenodd" d="M234.266 368.768H336.637C336.949 368.768 337.249 368.642 337.469 368.421C337.689 368.198 337.809 367.897 337.805 367.585V258.01C337.805 257.366 337.282 256.843 336.637 256.843H234.266C233.621 256.843 233.098 257.366 233.098 258.01V367.6C233.098 368.245 233.621 368.768 234.266 368.768ZM335.468 366.433H235.435V259.177H335.468V366.433Z" fill="#D8D3DA"/>
<path fill-rule="evenodd" clip-rule="evenodd" d="M127.151 368.768H222.402C222.714 368.768 223.014 368.642 223.234 368.421C223.454 368.198 223.574 367.897 223.57 367.585V258.01C223.57 257.366 223.047 256.843 222.402 256.843H127.151C126.506 256.843 125.983 257.366 125.983 258.01V367.6C125.983 368.245 126.506 368.768 127.151 368.768ZM221.233 366.433H128.312L128.32 259.177H221.233V366.433Z" fill="#D8D3DA"/>
<path fill-rule="evenodd" clip-rule="evenodd" d="M12.9239 368.768H115.295C115.607 368.768 115.907 368.642 116.127 368.421C116.346 368.198 116.467 367.897 116.463 367.585V258.01C116.463 257.366 115.94 256.843 115.295 256.843H12.9239C12.2785 256.843 11.7554 257.366 11.7554 258.01V367.6C11.7554 368.245 12.2785 368.768 12.9239 368.768ZM114.118 366.433H14.0924V259.177H114.118V366.433Z" fill="#D8D3DA"/>
<path fill-rule="evenodd" clip-rule="evenodd" d="M234.266 247.381H336.637C337.282 247.381 337.805 246.859 337.805 246.214V136.654C337.805 136.01 337.282 135.487 336.637 135.487H234.266C233.621 135.487 233.098 136.01 233.098 136.654V246.214C233.098 246.859 233.621 247.381 234.266 247.381ZM335.468 245.047H235.435V137.822H335.468V245.047Z" fill="#D8D3DA"/>
<path fill-rule="evenodd" clip-rule="evenodd" d="M127.151 247.381H222.402C223.047 247.381 223.57 246.859 223.57 246.214V136.654C223.57 136.01 223.047 135.487 222.402 135.487H127.151C126.506 135.487 125.983 136.01 125.983 136.654V246.214C125.987 246.857 126.508 247.377 127.151 247.381ZM221.233 245.047H128.312L128.32 137.822H221.233V245.047Z" fill="#D8D3DA"/>
<path fill-rule="evenodd" clip-rule="evenodd" d="M12.9239 247.381H115.295C115.94 247.381 116.463 246.859 116.463 246.214V136.654C116.463 136.01 115.94 135.487 115.295 135.487H12.9239C12.2785 135.487 11.7554 136.01 11.7554 136.654V246.214C11.7554 246.859 12.2785 247.381 12.9239 247.381ZM114.118 245.047H14.0924V137.822H114.118V245.047Z" fill="#D8D3DA"/>
<path fill-rule="evenodd" clip-rule="evenodd" d="M234.266 125.932H336.637C337.282 125.932 337.805 125.41 337.805 124.765V14.7933C337.801 12.725 336.121 11.0505 334.051 11.0505H234.266C233.621 11.0505 233.098 11.573 233.098 12.2177V124.765C233.098 125.41 233.621 125.932 234.266 125.932ZM335.468 123.598H235.435V13.3849H334.051C334.83 13.3849 335.464 14.0142 335.468 14.7933V123.598Z" fill="#D8D3DA"/>
<path fill-rule="evenodd" clip-rule="evenodd" d="M127.151 125.932H222.402C223.047 125.932 223.57 125.41 223.57 124.765V12.2177C223.57 11.573 223.047 11.0505 222.402 11.0505H127.151C126.506 11.0505 125.983 11.573 125.983 12.2177V124.765C125.983 125.41 126.506 125.932 127.151 125.932ZM221.233 123.598H128.312L128.32 13.3849H221.233V123.598Z" fill="#D8D3DA"/>
<mask id="mask0_15_71" style="mask-type:alpha" maskUnits="userSpaceOnUse" x="12" y="12" width="325" height="479">
<path fill-rule="evenodd" clip-rule="evenodd" d="M336.637 14.7929V124.764H234.266V12.2173H334.051C335.476 12.2173 336.632 13.3691 336.637 14.7929ZM115.295 124.764V12.2173H15.5024C14.0783 12.2173 12.9238 13.3704 12.9238 14.7929V124.764H115.295ZM336.637 488.287V379.412H234.266V490.854H334.051C334.735 490.857 335.391 490.587 335.876 490.106C336.361 489.624 336.635 488.97 336.637 488.287ZM127.159 379.412H222.417V490.854H127.159V379.412ZM115.295 490.854V379.412H12.9238V488.287C12.9238 488.969 13.1957 489.623 13.6795 490.105C14.1633 490.587 14.8192 490.857 15.5024 490.854H115.295ZM234.266 258.01H336.637V367.585H234.266V258.01ZM222.417 258.01H127.159V367.585H222.417V258.01ZM12.9238 258.01H115.295V367.585H12.9238V258.01ZM336.637 136.615H234.266V246.174H336.637V136.615ZM127.159 136.615H222.417V246.174H127.159V136.615ZM115.295 136.615H12.9238V246.174H115.295V136.615ZM222.417 12.2173H127.159V124.772H222.417V12.2173Z" fill="white"/>
</mask>
<g mask="url(#mask0_15_71)">
<path fill-rule="evenodd" clip-rule="evenodd" d="M30.3194 504.495H137.684C138.329 504.495 138.852 503.973 138.852 503.328V330.756C138.852 330.112 138.329 329.589 137.684 329.589H30.3194C29.6741 329.589 29.1509 330.112 29.1509 330.756V503.328C29.1509 503.973 29.6741 504.495 30.3194 504.495ZM136.515 502.161H31.4879V331.923H136.515V502.161Z" fill="#D8D3DA"/>
<path fill-rule="evenodd" clip-rule="evenodd" d="M25.435 331.923H142.568C144.091 331.923 145.326 330.69 145.326 329.169V319.956C145.326 318.434 144.091 317.201 142.568 317.201H25.435C23.9137 317.206 22.6815 318.437 22.6772 319.956V329.169C22.6815 330.688 23.9137 331.919 25.435 331.923ZM25.0143 319.956C25.0143 319.724 25.2027 319.536 25.435 319.536H142.568C142.8 319.536 142.989 319.724 142.989 319.956V329.169C142.989 329.401 142.8 329.589 142.568 329.589H25.435C25.2027 329.589 25.0143 329.401 25.0143 329.169V319.956Z" fill="#D8D3DA"/>
<path fill-rule="evenodd" clip-rule="evenodd" d="M51.6646 497.157H69.9404C70.5858 497.157 71.1089 496.635 71.1089 495.99V458.329C71.1089 457.685 70.5858 457.162 69.9404 457.162H51.6646C51.0193 457.162 50.4961 457.685 50.4961 458.329V495.99C50.4961 496.635 51.0193 497.157 51.6646 497.157ZM68.7407 494.823H52.802V459.496H68.7407V494.823Z" fill="#D8D3DA"/>
<path d="M69.9404 474.017H51.6646C51.0193 474.017 50.4961 473.494 50.4961 472.85C50.4961 472.205 51.0193 471.683 51.6646 471.683H69.9404C70.5858 471.683 71.1089 472.205 71.1089 472.85C71.1089 473.494 70.5858 474.017 69.9404 474.017Z" fill="#D8D3DA"/>
<path fill-rule="evenodd" clip-rule="evenodd" d="M98.0631 497.157H116.339C116.984 497.157 117.507 496.635 117.507 495.99V458.329C117.507 457.685 116.984 457.162 116.339 457.162H98.0631C97.418 457.162 96.8945 457.685 96.8945 458.329V495.99C96.8945 496.635 97.418 497.157 98.0631 497.157ZM115.139 494.823H99.2004V459.496H115.139V494.823Z" fill="#D8D3DA"/>
<path d="M116.339 474.017H98.0631C97.418 474.017 96.8945 473.494 96.8945 472.85C96.8945 472.205 97.418 471.683 98.0631 471.683H116.339C116.984 471.683 117.507 472.205 117.507 472.85C117.507 473.494 116.984 474.017 116.339 474.017Z" fill="#D8D3DA"/>
<path fill-rule="evenodd" clip-rule="evenodd" d="M51.5401 383.055H69.8159C70.4613 383.055 70.9844 382.532 70.9844 381.888V344.227C70.9844 343.581 70.4613 343.059 69.8159 343.059H51.5401C50.8948 343.059 50.3716 343.581 50.3716 344.227V381.888C50.3716 382.532 50.8948 383.055 51.5401 383.055ZM68.6162 380.72H52.6775V345.425H68.6162V380.72Z" fill="#D8D3DA"/>
<path d="M69.8159 359.944H51.5401C50.8948 359.944 50.3716 359.421 50.3716 358.777C50.3716 358.133 50.8948 357.61 51.5401 357.61H69.8159C70.4613 357.61 70.9844 358.133 70.9844 358.777C70.9844 359.421 70.4613 359.944 69.8159 359.944Z" fill="#D8D3DA"/>
<path fill-rule="evenodd" clip-rule="evenodd" d="M97.9381 383.055H116.214C116.859 383.055 117.382 382.532 117.382 381.888V344.227C117.382 343.581 116.859 343.059 116.214 343.059H97.9381C97.293 343.059 96.7695 343.581 96.7695 344.227V381.888C96.7695 382.532 97.293 383.055 97.9381 383.055ZM115.014 380.72H99.0754V345.425H115.014V380.72Z" fill="#D8D3DA"/>
<path d="M116.214 359.944H97.9381C97.293 359.944 96.7695 359.421 96.7695 358.777C96.7695 358.133 97.293 357.61 97.9381 357.61H116.214C116.859 357.61 117.382 358.133 117.382 358.777C117.382 359.421 116.859 359.944 116.214 359.944Z" fill="#D8D3DA"/>
<path fill-rule="evenodd" clip-rule="evenodd" d="M51.5401 440.309H69.8159C70.1313 440.309 70.4333 440.182 70.6534 439.955C70.8735 439.73 70.9928 439.426 70.9844 439.11V401.449C70.9844 400.804 70.4613 400.282 69.8159 400.282H51.5401C50.8948 400.282 50.3716 400.804 50.3716 401.449V439.142C50.3716 439.786 50.8948 440.309 51.5401 440.309ZM68.6162 437.974H52.6775V402.648H68.6162V437.974Z" fill="#D8D3DA"/>
<path d="M69.8159 417.206H51.5401C50.8948 417.206 50.3716 416.683 50.3716 416.039C50.3716 415.394 50.8948 414.872 51.5401 414.872H69.8159C70.4613 414.872 70.9844 415.394 70.9844 416.039C70.9844 416.683 70.4613 417.206 69.8159 417.206Z" fill="#D8D3DA"/>
<path fill-rule="evenodd" clip-rule="evenodd" d="M97.9381 440.309H116.214C116.529 440.309 116.832 440.182 117.051 439.955C117.272 439.73 117.391 439.426 117.382 439.11V401.449C117.382 400.804 116.859 400.282 116.214 400.282H97.9381C97.293 400.282 96.7695 400.804 96.7695 401.449V439.142C96.7695 439.786 97.293 440.309 97.9381 440.309ZM115.014 437.974H99.0754V402.648H115.014V437.974Z" fill="#D8D3DA"/>
<path d="M116.214 417.206H97.9381C97.293 417.206 96.7695 416.683 96.7695 416.039C96.7695 415.394 97.293 414.872 97.9381 414.872H116.214C116.859 414.872 117.382 415.394 117.382 416.039C117.382 416.683 116.859 417.206 116.214 417.206Z" fill="#D8D3DA"/>
<path fill-rule="evenodd" clip-rule="evenodd" d="M48.9693 442.223H72.9397C73.585 442.223 74.1082 441.7 74.1082 441.055V435.951C74.1082 435.306 73.585 434.784 72.9397 434.784H48.9693C48.324 434.784 47.8008 435.306 47.8008 435.951V441.055C47.8008 441.7 48.324 442.223 48.9693 442.223ZM71.7712 439.888H50.1378V437.118H71.7712V439.888Z" fill="#D8D3DA"/>
<path fill-rule="evenodd" clip-rule="evenodd" d="M94.7286 442.223H118.691C119.336 442.223 119.86 441.7 119.86 441.055V435.951C119.86 435.306 119.336 434.784 118.691 434.784H94.7286C94.0836 434.784 93.5601 435.306 93.5601 435.951V441.055C93.5601 441.7 94.0836 442.223 94.7286 442.223ZM117.523 439.888H95.8971V437.118H117.523V439.888Z" fill="#D8D3DA"/>
<path fill-rule="evenodd" clip-rule="evenodd" d="M48.9693 384.688H72.9397C73.573 384.688 74.0913 384.184 74.1082 383.552V378.416C74.1082 377.772 73.585 377.249 72.9397 377.249H48.9693C48.324 377.249 47.8008 377.772 47.8008 378.416V383.52C47.8008 384.165 48.324 384.688 48.9693 384.688ZM71.7712 382.353H50.1378V379.583H71.7712V382.353Z" fill="#D8D3DA"/>
<path fill-rule="evenodd" clip-rule="evenodd" d="M94.7286 384.688H118.691C119.325 384.688 119.843 384.184 119.86 383.552V378.416C119.86 377.772 119.336 377.249 118.691 377.249H94.7286C94.0836 377.249 93.5601 377.772 93.5601 378.416V383.52C93.5601 384.165 94.0836 384.688 94.7286 384.688ZM117.523 382.353H95.8971V379.583H117.523V382.353Z" fill="#D8D3DA"/>
<path fill-rule="evenodd" clip-rule="evenodd" d="M40.8907 319.537H77.8863C78.5313 319.537 79.0548 319.014 79.0548 318.369V306.386C79.0548 305.742 78.5313 305.219 77.8863 305.219H40.8907C40.2454 305.219 39.7222 305.742 39.7222 306.386V318.369C39.7222 319.014 40.2454 319.537 40.8907 319.537ZM76.7255 317.202H42.0514L42.0592 307.554H76.7255V317.202Z" fill="#D8D3DA"/>
<path d="M49.5845 319.116C48.9392 319.116 48.416 318.594 48.416 317.949V306.386C48.416 305.742 48.9392 305.219 49.5845 305.219C50.23 305.219 50.7531 305.742 50.7531 306.386V317.949C50.7531 318.259 50.63 318.555 50.4108 318.775C50.1917 318.994 49.8944 319.116 49.5845 319.116Z" fill="#D8D3DA"/>
<path d="M59.3848 319.537C58.7395 319.537 58.2163 319.014 58.2163 318.369V306.386C58.2163 305.742 58.7395 305.219 59.3848 305.219C60.0302 305.219 60.5534 305.742 60.5534 306.386V318.369C60.5534 319.014 60.0302 319.537 59.3848 319.537Z" fill="#D8D3DA"/>
<path d="M69.0211 319.116C68.3756 319.116 67.8525 318.594 67.8525 317.949V306.386C67.8525 305.742 68.3756 305.219 69.0211 305.219C69.6664 305.219 70.1896 305.742 70.1896 306.386V317.949C70.1896 318.594 69.6664 319.116 69.0211 319.116Z" fill="#D8D3DA"/>
<path fill-rule="evenodd" clip-rule="evenodd" d="M159.574 492.396H334.339C336.337 492.383 337.947 490.757 337.938 488.762V222.552C337.938 221.907 337.415 221.385 336.77 221.385H159.574C158.929 221.385 158.406 221.907 158.406 222.552V491.229C158.406 491.873 158.929 492.396 159.574 492.396ZM334.339 490.062H160.743V223.719H335.601V488.762C335.61 489.468 335.046 490.048 334.339 490.062Z" fill="#D8D3DA"/>
<path fill-rule="evenodd" clip-rule="evenodd" d="M153.202 289.578H347.73C348.375 289.578 348.899 289.056 348.899 288.411V273.922C348.899 273.278 348.375 272.755 347.73 272.755H153.202C152.557 272.755 152.033 273.278 152.033 273.922V288.411C152.033 289.056 152.557 289.578 153.202 289.578ZM346.562 287.244H154.37V275.089H346.562V287.244Z" fill="#D8D3DA"/>
<path fill-rule="evenodd" clip-rule="evenodd" d="M187.712 258.843H199.577C200.222 258.843 200.745 258.32 200.745 257.676V236.597C200.745 235.952 200.222 235.43 199.577 235.43H187.712C187.067 235.43 186.544 235.952 186.544 236.597V257.676C186.544 258.32 187.067 258.843 187.712 258.843ZM198.408 256.509H188.881L188.904 237.764H198.408V256.509Z" fill="#D8D3DA"/>
<path fill-rule="evenodd" clip-rule="evenodd" d="M220.018 258.843H231.89C232.535 258.843 233.059 258.32 233.059 257.676V236.597C233.059 235.952 232.535 235.43 231.89 235.43H220.018C219.373 235.43 218.85 235.952 218.85 236.597V257.676C218.85 258.32 219.373 258.843 220.018 258.843ZM230.722 256.509H221.187V237.764H230.722V256.509Z" fill="#D8D3DA"/>
<path fill-rule="evenodd" clip-rule="evenodd" d="M252.114 258.843H263.978C264.623 258.843 265.147 258.32 265.147 257.676V236.597C265.147 235.952 264.623 235.43 263.978 235.43H252.114C251.469 235.43 250.945 235.952 250.945 236.597V257.676C250.945 258.32 251.469 258.843 252.114 258.843ZM262.81 256.509H253.282V237.764H262.81V256.509Z" fill="#D8D3DA"/>
<path fill-rule="evenodd" clip-rule="evenodd" d="M286.18 258.843H298.053C298.698 258.843 299.221 258.32 299.221 257.676V236.597C299.221 235.952 298.698 235.43 298.053 235.43H286.18C285.535 235.43 285.012 235.952 285.012 236.597V257.676C285.012 258.32 285.535 258.843 286.18 258.843ZM296.884 256.509H287.349V237.764H296.884V256.509Z" fill="#D8D3DA"/>
<path fill-rule="evenodd" clip-rule="evenodd" d="M318.494 258.843H330.358C331.003 258.843 331.527 258.32 331.527 257.676V236.597C331.527 235.952 331.003 235.43 330.358 235.43H318.494C317.849 235.43 317.325 235.952 317.325 236.597V257.676C317.325 258.32 317.849 258.843 318.494 258.843ZM329.19 256.509H319.662V237.764H329.19V256.509Z" fill="#D8D3DA"/>
<path fill-rule="evenodd" clip-rule="evenodd" d="M152.758 223.719H336.77C337.084 223.719 337.384 223.593 337.604 223.369C337.824 223.145 337.944 222.842 337.938 222.528V208.476C337.938 207.83 337.415 207.308 336.77 207.308H152.758C152.113 207.308 151.589 207.83 151.589 208.476V222.552C151.589 223.196 152.113 223.719 152.758 223.719ZM335.601 221.385H153.926V209.666H335.601V221.385Z" fill="#D8D3DA"/>
<path fill-rule="evenodd" clip-rule="evenodd" d="M245.773 209.666H312.558C312.873 209.668 313.176 209.542 313.398 209.318C313.619 209.094 313.74 208.79 313.734 208.475V186.641C313.73 184.733 312.193 183.18 310.283 183.155L290.434 182.969V171.725C290.434 170.292 289.274 169.13 287.839 169.126H263.02C261.586 169.13 260.426 170.292 260.426 171.725V190.789C260.428 190.966 260.358 191.138 260.232 191.264C260.106 191.39 259.934 191.46 259.756 191.458H247.447C245.876 191.462 244.604 192.736 244.604 194.306V208.499C244.604 209.143 245.128 209.666 245.773 209.666ZM311.389 207.332H246.91V194.306C246.908 194.17 246.961 194.04 247.056 193.943C247.151 193.846 247.281 193.792 247.416 193.792H259.725C261.386 193.792 262.732 192.447 262.732 190.789V171.725C262.732 171.582 262.845 171.464 262.989 171.46H287.801C287.944 171.464 288.058 171.582 288.058 171.725V184.128C288.058 184.769 288.576 185.291 289.218 185.295L310.252 185.49C310.881 185.502 311.385 186.013 311.389 186.641V207.332Z" fill="#D8D3DA"/>
<path fill-rule="evenodd" clip-rule="evenodd" d="M327.281 209.666H337.174C337.488 209.666 337.789 209.54 338.009 209.316C338.229 209.092 338.349 208.789 338.343 208.475V198.617C338.343 197.972 337.819 197.449 337.174 197.449H327.281C326.636 197.449 326.112 197.972 326.112 198.617V208.499C326.112 209.143 326.636 209.666 327.281 209.666ZM336.006 207.332H328.449V199.784H336.006V207.332Z" fill="#D8D3DA"/>
<path fill-rule="evenodd" clip-rule="evenodd" d="M152.766 313.07H324.757C326.311 313.066 327.57 311.806 327.57 310.254V298.185C327.57 296.633 326.311 295.372 324.757 295.368H292.958C292.529 295.368 292.102 295.297 291.696 295.158L241.761 278.04C240.775 277.709 239.708 277.709 238.723 278.04L188.468 295.057C187.838 295.268 187.177 295.376 186.513 295.376H152.766C150.906 295.376 149.397 296.879 149.393 298.738V309.709C149.397 311.566 150.906 313.07 152.766 313.07ZM151.73 298.73C151.734 298.161 152.196 297.703 152.766 297.703L186.482 297.71C187.401 297.711 188.314 297.561 189.185 297.267L239.447 280.249C239.952 280.075 240.5 280.075 241.005 280.249L290.94 297.368C291.59 297.588 292.271 297.701 292.958 297.703H324.757C324.885 297.703 325.007 297.754 325.096 297.844C325.186 297.935 325.235 298.057 325.232 298.185V310.254C325.235 310.381 325.186 310.503 325.096 310.595C325.007 310.685 324.885 310.736 324.757 310.736H152.766C152.196 310.736 151.734 310.278 151.73 309.709V298.73Z" fill="#D8D3DA"/>
<path fill-rule="evenodd" clip-rule="evenodd" d="M178.917 336.344H200.457C201.102 336.344 201.625 335.821 201.625 335.177V324.198C201.625 323.553 201.102 323.031 200.457 323.031H178.917C178.271 323.031 177.749 323.553 177.749 324.198V335.177C177.749 335.821 178.271 336.344 178.917 336.344ZM199.288 334.01H180.086V325.365H199.288V334.01Z" fill="#D8D3DA"/>
<path fill-rule="evenodd" clip-rule="evenodd" d="M183.973 398.913H195.183C195.828 398.913 196.351 398.39 196.351 397.746V335.177C196.351 334.533 195.828 334.01 195.183 334.01H183.973C183.328 334.01 182.804 334.533 182.804 335.177V397.746C182.804 398.39 183.328 398.913 183.973 398.913ZM194.014 396.578H185.141V336.344H194.014V396.578Z" fill="#D8D3DA"/>
<path d="M200.457 398.912H178.917C178.271 398.912 177.749 398.39 177.749 397.745C177.749 397.1 178.271 396.577 178.917 396.577H200.457C201.102 396.577 201.625 397.1 201.625 397.745C201.625 398.39 201.102 398.912 200.457 398.912Z" fill="#D8D3DA"/>
<path fill-rule="evenodd" clip-rule="evenodd" d="M276.512 336.344H298.052C298.697 336.344 299.221 335.821 299.221 335.177V324.198C299.221 323.553 298.697 323.031 298.052 323.031H276.512C275.867 323.031 275.344 323.553 275.344 324.198V335.177C275.344 335.821 275.867 336.344 276.512 336.344ZM296.884 334.01H277.681L277.712 325.365H296.884V334.01Z" fill="#D8D3DA"/>
<path fill-rule="evenodd" clip-rule="evenodd" d="M281.607 398.913H292.778C293.094 398.924 293.402 398.805 293.63 398.585C293.857 398.365 293.986 398.062 293.986 397.746V335.177C293.986 334.533 293.462 334.01 292.817 334.01H281.607C280.962 334.01 280.438 334.533 280.438 335.177V397.746C280.438 398.39 280.962 398.913 281.607 398.913ZM291.61 396.578H282.737V336.344H291.61V396.578Z" fill="#D8D3DA"/>
<path d="M298.052 398.912H276.512C275.867 398.912 275.344 398.39 275.344 397.745C275.344 397.1 275.867 396.577 276.512 396.577H298.052C298.697 396.577 299.221 397.1 299.221 397.745C299.221 398.39 298.697 398.912 298.052 398.912Z" fill="#D8D3DA"/>
<path fill-rule="evenodd" clip-rule="evenodd" d="M221.233 336.344H255.736C256.381 336.344 256.905 335.821 256.905 335.177V324.198C256.905 323.553 256.381 323.031 255.736 323.031H221.233C220.588 323.031 220.065 323.553 220.065 324.198V335.177C220.065 335.821 220.588 336.344 221.233 336.344ZM254.568 334.01H222.402V325.365H254.568V334.01Z" fill="#D8D3DA"/>
<path fill-rule="evenodd" clip-rule="evenodd" d="M227.247 398.913H249.667C250.312 398.913 250.836 398.39 250.836 397.746V335.177C250.836 334.533 250.312 334.01 249.667 334.01H227.247C226.602 334.01 226.079 334.533 226.079 335.177V397.746C226.079 398.39 226.602 398.913 227.247 398.913ZM248.499 396.578H228.416V336.344H248.499V396.578Z" fill="#D8D3DA"/>
<path d="M255.845 398.912H221.116C220.471 398.912 219.948 398.39 219.948 397.745C219.948 397.1 220.471 396.577 221.116 396.577H255.845C256.49 396.577 257.013 397.1 257.013 397.745C257.013 398.39 256.49 398.912 255.845 398.912Z" fill="#D8D3DA"/>
<path fill-rule="evenodd" clip-rule="evenodd" d="M178.699 443.039H200.239C200.869 443.04 201.386 442.54 201.407 441.911V430.9C201.407 430.256 200.884 429.733 200.239 429.733H178.699C178.054 429.733 177.53 430.256 177.53 430.9V441.872C177.53 442.517 178.054 443.039 178.699 443.039ZM199.07 440.705H179.867V432.068H199.07V440.705Z" fill="#D8D3DA"/>
<path fill-rule="evenodd" clip-rule="evenodd" d="M183.755 492.396H194.965C195.595 492.396 196.112 491.897 196.134 491.268V441.912C196.134 441.267 195.61 440.745 194.965 440.745H183.755C183.11 440.745 182.586 441.267 182.586 441.912V491.229C182.586 491.873 183.11 492.396 183.755 492.396ZM193.796 490.062H184.923V443.04H193.796V490.062Z" fill="#D8D3DA"/>
<path fill-rule="evenodd" clip-rule="evenodd" d="M276.287 443.039H297.834C298.465 443.04 298.982 442.54 299.003 441.911V430.9C299.003 430.256 298.479 429.733 297.834 429.733H276.287C275.641 429.733 275.118 430.256 275.118 430.9V441.872C275.118 442.517 275.641 443.039 276.287 443.039ZM296.666 440.705H277.455V432.068H296.666V440.705Z" fill="#D8D3DA"/>
<path fill-rule="evenodd" clip-rule="evenodd" d="M281.342 492.396H292.552C293.183 492.396 293.7 491.897 293.721 491.268V441.912C293.721 441.267 293.198 440.745 292.552 440.745H281.342C280.699 440.749 280.178 441.269 280.174 441.912V491.229C280.174 491.873 280.697 492.396 281.342 492.396ZM291.384 490.062H282.511V443.04H291.384V490.062Z" fill="#D8D3DA"/>
<path fill-rule="evenodd" clip-rule="evenodd" d="M221.007 443.039H255.518C256.148 443.04 256.665 442.54 256.686 441.911V430.9C256.686 430.256 256.163 429.733 255.518 429.733H221.007C220.362 429.733 219.839 430.256 219.839 430.9V441.872C219.839 442.517 220.362 443.039 221.007 443.039ZM254.342 440.705H222.176L222.168 432.068H254.342V440.705Z" fill="#D8D3DA"/>
<path fill-rule="evenodd" clip-rule="evenodd" d="M227.076 492.396H249.473C250.112 492.409 250.643 491.906 250.664 491.268V441.912C250.664 441.267 250.141 440.745 249.496 440.745H227.076C226.431 440.745 225.907 441.267 225.907 441.912V491.229C225.907 491.873 226.431 492.396 227.076 492.396ZM248.304 490.062H228.221V443.04H248.304V490.062Z" fill="#D8D3DA"/>
<path fill-rule="evenodd" clip-rule="evenodd" d="M152.983 422.077H317.613C317.925 422.077 318.223 421.954 318.442 421.733C318.662 421.512 318.784 421.214 318.782 420.902V407.737C318.782 407.092 318.258 406.569 317.613 406.569H152.983C152.338 406.569 151.815 407.092 151.815 407.737V420.91C151.815 421.554 152.338 422.077 152.983 422.077ZM316.445 419.743H154.152V408.904H316.445V419.743Z" fill="#D8D3DA"/>
<path d="M317.613 492.395C316.968 492.395 316.445 491.872 316.445 491.228V311.903C316.445 311.257 316.968 310.735 317.613 310.735C318.258 310.735 318.782 311.257 318.782 311.903V491.228C318.782 491.872 318.258 492.395 317.613 492.395Z" fill="#D8D3DA"/>
<path fill-rule="evenodd" clip-rule="evenodd" d="M347.801 1.48636C347.098 0.784459 346.146 0.390137 345.152 0.390137H4.40141L4.20328 0.395378C3.28179 0.444179 2.40813 0.832049 1.75332 1.48808C1.05324 2.18948 0.662109 3.14066 0.662109 4.1329V500.799L0.6673 500.997C0.715633 501.917 1.09991 502.79 1.75332 503.444C2.4549 504.147 3.40772 504.542 4.40141 504.542H345.152L345.318 504.538C347.31 504.451 348.899 502.811 348.899 500.799V4.1329L348.893 3.93497C348.845 3.01443 348.457 2.14148 347.801 1.48636ZM4.40141 2.7245H345.152L345.275 2.72995C345.604 2.7589 345.913 2.90223 346.149 3.137C346.413 3.40113 346.562 3.75936 346.562 4.1329V500.799L346.557 500.914C346.498 501.639 345.892 502.208 345.152 502.208H4.40141L4.27787 502.202C3.95053 502.173 3.64223 502.03 3.40837 501.796C3.14636 501.533 2.99917 501.175 2.99917 500.799V4.1329L3.00457 4.00827C3.03329 3.67833 3.17547 3.36956 3.40837 3.13623C3.67146 2.87265 4.02877 2.7245 4.40141 2.7245ZM336.769 378.619C337.377 378.619 337.876 379.082 337.932 379.673L337.938 379.786V488.727C337.935 489.719 337.538 490.67 336.832 491.369C336.174 492.023 335.299 492.407 334.381 492.453L334.183 492.458H234.399C233.791 492.458 233.292 491.995 233.236 491.403L233.23 491.291V379.786C233.23 379.179 233.694 378.681 234.286 378.624L234.399 378.619H336.769ZM223.705 379.673C223.648 379.082 223.15 378.619 222.542 378.619H127.284L127.172 378.624C126.579 378.681 126.115 379.179 126.115 379.786V491.267L126.121 491.379C126.177 491.971 126.676 492.434 127.284 492.434H222.542L222.654 492.429C223.247 492.372 223.711 491.874 223.711 491.267V379.786L223.705 379.673ZM115.427 378.619C116.035 378.619 116.533 379.082 116.59 379.673L116.596 379.786V491.228C116.596 491.835 116.132 492.333 115.539 492.39L115.427 492.396H15.6349C13.6256 492.396 11.9849 490.816 11.8919 488.827L11.8878 488.66V379.786C11.8878 379.179 12.3512 378.681 12.9437 378.624L13.0563 378.619H115.427ZM235.567 380.952H335.601V488.723L335.595 488.846C335.565 489.171 335.421 489.48 335.185 489.714L335.093 489.797C334.84 490.008 334.519 490.124 334.186 490.123H235.567V380.952ZM221.373 380.952H128.452V490.1H221.373V380.952ZM14.2248 380.952H114.259V490.061H15.6349L15.5195 490.056C14.7962 489.998 14.227 489.394 14.2248 488.657V380.952ZM336.769 257.216C337.377 257.216 337.876 257.679 337.932 258.272L337.938 258.384V368.013C337.938 368.62 337.474 369.118 336.882 369.175L336.769 369.18H234.399C233.791 369.18 233.292 368.717 233.236 368.125L233.23 368.013V258.384C233.23 257.777 233.694 257.279 234.286 257.222L234.399 257.216H336.769ZM223.705 258.272C223.648 257.679 223.15 257.216 222.542 257.216H127.284L127.172 257.222C126.579 257.279 126.115 257.777 126.115 258.384V367.99L126.121 368.102C126.177 368.694 126.676 369.157 127.284 369.157H222.542L222.654 369.151C223.247 369.095 223.711 368.597 223.711 367.99V258.384L223.705 258.272ZM115.427 257.216C116.035 257.216 116.533 257.679 116.59 258.272L116.596 258.384V367.951C116.596 368.558 116.132 369.056 115.539 369.112L115.427 369.118H13.0563C12.4489 369.118 11.9497 368.655 11.8932 368.063L11.8878 367.951V258.384C11.8878 257.777 12.3512 257.279 12.9437 257.222L13.0563 257.216H115.427ZM235.567 259.551H335.601V366.845H235.567V259.551ZM221.373 259.551H128.452V366.822H221.373V259.551ZM14.2248 259.551H114.259V366.783H14.2248V259.551ZM336.769 135.9C337.377 135.9 337.876 136.363 337.932 136.955L337.938 137.067V246.626C337.938 247.233 337.474 247.731 336.882 247.788L336.769 247.793H234.399C233.791 247.793 233.292 247.33 233.236 246.738L233.23 246.626V137.067C233.23 136.46 233.694 135.962 234.286 135.905L234.399 135.9H336.769ZM223.705 136.932C223.648 136.339 223.15 135.876 222.542 135.876H127.284L127.172 135.882C126.579 135.939 126.115 136.437 126.115 137.044V246.603L126.121 246.715C126.177 247.307 126.676 247.77 127.284 247.77H222.542L222.654 247.765C223.247 247.708 223.711 247.21 223.711 246.603V137.044L223.705 136.932ZM115.427 135.838C116.035 135.838 116.533 136.301 116.59 136.893L116.596 137.005V246.564C116.596 247.171 116.132 247.669 115.539 247.726L115.427 247.731H13.0563C12.4489 247.731 11.9497 247.268 11.8932 246.676L11.8878 246.564V137.005C11.8878 136.398 12.3512 135.9 12.9437 135.843L13.0563 135.838H115.427ZM235.567 138.233H335.601V245.458H235.567V138.233ZM221.373 138.21H128.452V245.435H221.373V138.21ZM14.2248 138.171H114.259V245.396H14.2248V138.171ZM115.427 11.4161C116.035 11.4161 116.533 11.879 116.59 12.4709L116.596 12.5833V125.177C116.596 125.784 116.132 126.282 115.539 126.339L115.427 126.344H13.0563C12.4489 126.344 11.9497 125.881 11.8932 125.289L11.8878 125.177V15.1667C11.8878 13.1555 13.4727 11.5133 15.4677 11.4202L15.6349 11.4161H115.427ZM337.934 14.9996C337.847 13.0057 336.201 11.4161 334.183 11.4161H234.399L234.286 11.4214C233.694 11.478 233.23 11.9766 233.23 12.5833V125.138L233.236 125.25C233.292 125.843 233.791 126.306 234.399 126.306H336.769L336.882 126.3C337.474 126.243 337.938 125.745 337.938 125.138V15.1667L337.934 14.9996ZM222.542 11.4161C223.15 11.4161 223.648 11.879 223.705 12.4709L223.711 12.5833V125.138C223.711 125.745 223.247 126.243 222.654 126.3L222.542 126.306H127.284C126.676 126.306 126.177 125.843 126.121 125.25L126.115 125.138V12.5833C126.115 11.9766 126.579 11.478 127.172 11.4214L127.284 11.4161H222.542ZM15.6384 13.7505L114.259 13.7497V124.009H14.2248V15.1667L14.2295 15.0507C14.2884 14.3244 14.896 13.7527 15.6384 13.7505ZM334.183 13.7505L235.567 13.7497V123.97H335.601V15.1667C335.601 14.4236 335.028 13.8142 334.299 13.7551L334.183 13.7505ZM128.452 13.7497H221.373V123.97H128.452V13.7497Z" fill="#D8D3DA"/>
<rect x="12" y="418" width="143" height="73" fill="#D9D9D9"/>
</g>
</g>
</svg>
