<svg width="122" height="95" viewBox="0 0 122 95" fill="none" xmlns="http://www.w3.org/2000/svg">
<g opacity="0.8" clip-path="url(#clip0_15_1040)">
<path d="M83.9366 38.4038H52.6578C52.2645 38.4038 51.9453 38.0848 51.9453 37.6913V18.5298C51.9453 18.1363 52.2645 17.8173 52.6578 17.8173H83.9461C84.3394 17.8173 84.6586 18.1363 84.6586 18.5298V24.7998C84.6586 25.1933 84.3394 25.5123 83.9461 25.5123C83.5528 25.5123 83.2336 25.1933 83.2336 24.7998V19.2423H53.3608V36.9788H83.2241V29.5213C83.2241 29.1278 83.5433 28.8088 83.9366 28.8088C84.3299 28.8088 84.6491 29.1278 84.6491 29.5213V37.6913C84.6491 38.0848 84.3299 38.4038 83.9366 38.4038Z" fill="#D8D3DA"/>
<path d="M90.6058 19.2423H36.983C36.5895 19.2423 36.2705 18.9233 36.2705 18.5298C36.2705 18.1363 36.5895 17.8173 36.983 17.8173H90.6058C90.9991 17.8173 91.3183 18.1363 91.3183 18.5298C91.3183 18.9233 90.9991 19.2423 90.6058 19.2423Z" fill="#D8D3DA"/>
<path fill-rule="evenodd" clip-rule="evenodd" d="M68.2901 57.5652H99.5784C99.7689 57.5652 99.9517 57.4888 100.086 57.3534C100.22 57.2175 100.293 57.0337 100.291 56.8432V37.6817C100.291 37.2882 99.9717 36.9692 99.5784 36.9692H68.2901C67.8968 36.9692 67.5776 37.2882 67.5776 37.6817V56.8527C67.5776 57.246 67.8968 57.5652 68.2901 57.5652ZM98.8659 56.1402H69.0026V38.4037H98.8659V56.1402Z" fill="#D8D3DA"/>
<path fill-rule="evenodd" clip-rule="evenodd" d="M36.983 57.5652H68.2903C68.6802 57.5548 68.989 57.2332 68.9838 56.8432V37.6817C68.9838 37.2882 68.6646 36.9692 68.2713 36.9692H36.983C36.5895 36.9692 36.2705 37.2882 36.2705 37.6817V56.8527C36.2705 57.246 36.5895 57.5652 36.983 57.5652ZM67.5778 56.1402H37.7145V38.4037H67.5778V56.1402Z" fill="#D8D3DA"/>
<path d="M107.34 38.4038H0.792578C0.399075 38.4038 0.0800781 38.0847 0.0800781 37.6913C0.0800781 37.2978 0.399075 36.9788 0.792578 36.9788H107.34C107.733 36.9788 108.052 37.2978 108.052 37.6913C108.052 38.0847 107.733 38.4038 107.34 38.4038Z" fill="#D8D3DA"/>
<path d="M120.844 57.5653H22.044C21.6506 57.5653 21.3315 57.2461 21.3315 56.8528C21.3315 56.4595 21.6506 56.1403 22.044 56.1403H120.844C121.237 56.1403 121.557 56.4595 121.557 56.8528C121.557 57.2461 121.237 57.5653 120.844 57.5653Z" fill="#D8D3DA"/>
<path fill-rule="evenodd" clip-rule="evenodd" d="M52.6578 76.7268H83.9366C84.127 76.7291 84.3109 76.6555 84.4467 76.5216C84.5821 76.3876 84.6586 76.2047 84.6586 76.0143V56.8528C84.6586 56.4595 84.3394 56.1403 83.9461 56.1403H52.6578C52.2645 56.1403 51.9453 56.4595 51.9453 56.8528V76.0143C51.9453 76.4076 52.2645 76.7268 52.6578 76.7268ZM83.2241 75.3018H53.3608V57.5653H83.2241V75.3018Z" fill="#D8D3DA"/>
<path d="M87.8554 76.7268H39.0206C38.6271 76.7268 38.3081 76.4076 38.3081 76.0143C38.3081 75.621 38.6271 75.3018 39.0206 75.3018H87.8554C88.2487 75.3018 88.5679 75.621 88.5679 76.0143C88.5679 76.4076 88.2487 76.7268 87.8554 76.7268Z" fill="#D8D3DA"/>
</g>
<defs>
<clipPath id="clip0_15_1040">
<rect width="121.6" height="95" fill="white" transform="translate(0.0800781)"/>
</clipPath>
</defs>
</svg>
