<svg width="17" height="20" viewBox="0 0 17 20" fill="none" xmlns="http://www.w3.org/2000/svg">
<path d="M16.3654 10.0571C16.3654 10.6303 16.185 11.2057 15.8242 11.6664C15.7566 11.7568 15.4409 12.1294 15.1928 12.3719L15.0575 12.5042C13.1632 14.5125 8.45014 17.5328 6.05977 18.5006C6.05977 18.5226 4.63907 19.098 3.96255 19.1179H3.87235C2.83502 19.1179 1.86534 18.5469 1.36922 17.621C1.09861 17.1117 0.850557 15.6347 0.828006 15.6148C0.62505 14.2899 0.489746 12.2617 0.489746 10.035C0.489746 7.7004 0.62505 5.5818 0.873108 4.2811C0.873108 4.25906 1.12117 3.06859 1.27902 2.67176C1.52708 2.10078 1.97809 1.61357 2.54186 1.30493C2.99287 1.08668 3.46644 0.974243 3.96255 0.974243C4.48122 0.998493 5.4509 1.32697 5.83426 1.48129C8.35993 2.45131 13.1858 5.62589 15.0349 7.56592C15.3506 7.87456 15.6889 8.25154 15.7791 8.33752C16.1625 8.82252 16.3654 9.41776 16.3654 10.0571" fill="white"/>
</svg>
