<svg width="339" height="605" viewBox="0 0 339 605" fill="none" xmlns="http://www.w3.org/2000/svg">
<path opacity="0.15" d="M467.432 5.77388C493.462 24.81 491.697 97.3529 524.786 150.345C558.316 203.852 626.258 238.323 636.846 279.996C647.435 321.155 600.228 370.032 564.492 418.394C528.315 466.756 504.05 514.603 468.314 551.132C432.137 587.66 384.048 612.356 341.253 602.066C298.899 591.776 260.958 546.501 204.927 523.864C148.897 500.712 74.3368 500.197 35.9538 462.125C-2.87042 424.053 -5.5176 348.423 5.95319 280.511C16.9828 212.598 42.1303 151.889 74.3367 100.954C106.543 49.5054 145.367 7.31738 189.927 1.14352C234.928 -5.03035 285.664 24.81 337.283 22.752C389.342 20.6941 441.843 -13.2622 467.432 5.77388Z" fill="url(#paint0_angular_15_529)"/>
<defs>
<radialGradient id="paint0_angular_15_529" cx="0" cy="0" r="1" gradientUnits="userSpaceOnUse" gradientTransform="translate(319.178 302.207) rotate(90) scale(302.208 319.179)">
<stop stop-color="#FFB4B4"/>
<stop offset="0.526042" stop-color="#121BF4"/>
<stop offset="1" stop-color="#C65D5D"/>
</radialGradient>
</defs>
</svg>
